# xmcd CD database file
#
# Track frame offsets:
#	150
#	17540
#	31217
#
# Disc length: 608 seconds
#
# Revision: 0
# Processed by: cddbd v1.5.1PL0 Copyright (c) Steve Scherf et al.
# Submitted via: CD2WAV32(EN) R3.19
#
DISCID=15025e03
DTITLE=Kaoru Abe - KUNSEI
DYEAR=1900
DGENRE=
TTITLE0=NEVER GET OUT
TTITLE1=white Grum
TTITLE2=Kimidakeni
EXTD=
EXTT0=
EXTT1=
EXTT2=
PLAYORDER=
